# xmcd CD database file
#
# Track frame offsets:
#	150
#	47462
#	70369
#	107171
#	151388
#	179498
#	194912
#	222529
#	240212
#	264232
#
# Disc length: 3959 seconds
#
# Revision: 0
# Processed by: cddbd v1.5.1PL0 Copyright (c) Steve Scherf et al.
# Submitted via: CDex 1.51
#
DISCID=900f750a
DTITLE=Grössen der Bluesgeschichte - Blues Live
DYEAR=2003
DGENRE=Blues
TTITLE0=The Allman Brothers Band - Stormy Monday
TTITLE1=Pat Travers Band - Boom Boom (Out Go The Lights)
TTITLE2=Cowboy - Where Can You Go ?
TTITLE3=Wet Willie - Macon Hambone Blues
TTITLE4=Ten Years After - I'm Going Home
TTITLE5=The Who - Summertime Blues
TTITLE6=Free - Crossroads
TTITLE7=Roy Buchanan - Further On Up The Road
TTITLE8=Stillwater - Mind Bender
TTITLE9=Elvin Bishop - Travelin' Shoes
EXTD=YEAR: 2003
EXTT0=
EXTT1=
EXTT2=
EXTT3=
EXTT4=
EXTT5=
EXTT6=
EXTT7=
EXTT8=
EXTT9=
PLAYORDER=
